HIERARCHY
ROOT root
{
	OFFSET 0.000000 0.000000 0.000000
	CHANNELS 6 Xposition Yposition Zposition Zrotation Yrotation Xrotation
	JOINT lhip
	{
		OFFSET 0.058581 -0.082280 -0.017664
		CHANNELS 3 Zrotation Yrotation Xrotation
		JOINT lknee
		{
			OFFSET 0.043451 -0.386469 0.008037
			CHANNELS 3 Zrotation Yrotation Xrotation
			JOINT lankle
			{
				OFFSET -0.014790 -0.426874 -0.037428
				CHANNELS 3 Zrotation Yrotation Xrotation
				JOINT ltoe
				{
					OFFSET 0.041054 -0.060286 0.122042
					CHANNELS 3 Zrotation Yrotation Xrotation
					End Site
					{
						OFFSET 0.000000 0.000000 0.000000
					}
				}
			}
		}
	}
	JOINT rhip
	{
		OFFSET -0.060310 -0.090513 -0.013543
		CHANNELS 3 Zrotation Yrotation Xrotation
		JOINT rknee
		{
			OFFSET -0.043257 -0.383688 -0.004843
			CHANNELS 3 Zrotation Yrotation Xrotation
			JOINT rankle
			{
				OFFSET 0.019056 -0.420046 -0.034562
				CHANNELS 3 Zrotation Yrotation Xrotation
				JOINT rtoe
				{
					OFFSET -0.034840 -0.062106 0.130323
					CHANNELS 3 Zrotation Yrotation Xrotation
					End Site
					{
						OFFSET 0.000000 0.000000 0.000000
					}
				}
			}
		}
	}
	JOINT lowerback
	{
		OFFSET 0.004439 0.124404 -0.038385
		CHANNELS 3 Zrotation Yrotation Xrotation
		JOINT upperback
		{
			OFFSET 0.004488 0.137956 0.026820
			CHANNELS 3 Zrotation Yrotation Xrotation
			JOINT chest
			{
				OFFSET -0.002265 0.056032 0.002855
				CHANNELS 3 Zrotation Yrotation Xrotation
				JOINT lowerneck
				{
					OFFSET -0.013390 0.211636 -0.033468
					CHANNELS 3 Zrotation Yrotation Xrotation
					JOINT upperneck
					{
						OFFSET 0.010113 0.088937 0.050410
						CHANNELS 3 Zrotation Yrotation Xrotation
						End Site
						{
							OFFSET 0.000000 0.000000 0.000000
						}
					}
				}
				JOINT lclavicle
				{
					OFFSET 0.071702 0.114000 -0.018898
					CHANNELS 3 Zrotation Yrotation Xrotation
					JOINT lshoulder
					{
						OFFSET 0.122921 0.045205 -0.019046
						CHANNELS 3 Zrotation Yrotation Xrotation
						JOINT lelbow
						{
							OFFSET 0.255332 -0.015649 -0.022946
							CHANNELS 3 Zrotation Yrotation Xrotation
							JOINT lwrist
							{
								OFFSET 0.265709 0.012698 -0.007375
								CHANNELS 3 Zrotation Yrotation Xrotation
								End Site
								{
									OFFSET 0.000000 0.000000 0.000000
								}
							}
						}
					}
				}
				JOINT rclavicle
				{
					OFFSET -0.082954 0.112472 -0.023707
					CHANNELS 3 Zrotation Yrotation Xrotation
					JOINT rshoulder
					{
						OFFSET -0.113228 0.046853 -0.008472
						CHANNELS 3 Zrotation Yrotation Xrotation
						JOINT relbow
						{
							OFFSET -0.260127 -0.014369 -0.031269
							CHANNELS 3 Zrotation Yrotation Xrotation
							JOINT rwrist
							{
								OFFSET -0.269108 0.006794 -0.006027
								CHANNELS 3 Zrotation Yrotation Xrotation
								End Site
								{
									OFFSET 0.000000 0.000000 0.000000
								}
							}
						}
					}
				}
			}
		}
	}
}
MOTION
Frames: 10
Frame Time: 0.033333
1.757435 0.732161 1.000789 -90.401453 3.616298 84.525265 2.688000 1.505503 10.255031 -1.524567 -14.977195 0.013046 3.176764 8.159288 -16.804024 0.000000 -0.000000 0.000000 2.669990 -1.811669 6.133224 2.620667 2.079039 7.405649 3.445400 -4.344999 -16.064944 0.000000 -0.000000 0.000000 -1.616251 0.944202 5.694449 1.673535 -2.265125 3.275408 1.650153 -1.626902 4.493573 3.911820 0.419688 -8.870394 3.334049 -6.441246 -3.686127 -28.179134 3.803170 -0.841291 -59.140801 -5.425280 8.219208 9.360490 -24.557620 5.256473 -1.383136 -0.794065 -4.938493 26.924803 -1.129469 -2.894010 59.153592 1.338831 11.907571 -15.201206 25.332636 -2.897502 4.108586 -2.205725 -4.392017 
1.757511 0.732973 0.999697 -89.486358 3.676415 84.251266 2.957395 1.340350 10.188573 -1.857419 -15.457669 0.607331 3.200806 7.843095 -17.328698 0.000000 -0.000000 0.000000 3.756148 -2.526410 4.747896 0.790284 1.565086 10.721529 3.448112 -4.238364 -18.042279 0.000000 -0.000000 0.000000 -1.781279 0.629582 6.421639 1.752061 -2.499737 2.609850 1.674160 -1.972356 5.177908 4.067991 0.789482 -9.745098 3.145747 -6.782055 -2.820818 -27.367597 3.958181 -0.838570 -59.698364 -5.139981 8.135316 8.888101 -22.533826 5.436954 -1.577855 -1.428560 -5.654822 26.579358 -1.430450 -3.464942 59.455584 1.404288 11.852274 -13.431842 24.628201 -2.795844 5.765485 -0.704700 -6.423603 
1.760501 0.733298 1.000173 -89.406672 3.572406 84.771280 2.948706 0.899338 8.785702 -2.278021 -15.085301 1.668719 3.653828 8.073063 -17.343900 0.000000 -0.000000 0.000000 3.588024 -2.138034 4.346519 1.109188 2.606946 11.199616 3.229902 -4.794477 -14.949145 0.000000 -0.000000 0.000000 -1.579195 0.772739 6.565380 1.675014 -2.654695 2.123670 1.423432 -2.013504 5.172293 3.570218 0.786254 -9.434618 3.301773 -6.285258 -3.103812 -27.592699 3.984362 -0.591330 -59.238517 -4.855275 7.578230 8.218132 -20.261671 5.483516 -2.420373 -1.541736 -6.329795 26.764288 -1.588146 -3.232617 59.136324 1.353225 12.022472 -13.357455 24.123601 -2.550619 5.824802 -0.849563 -6.573087 
1.760431 0.734150 0.999807 -89.522365 3.874396 84.719439 3.342045 0.901294 8.986596 -2.210638 -15.069173 1.432152 3.224483 8.116914 -16.912493 0.000000 -0.000000 0.000000 2.689699 -2.234850 5.724156 3.106044 2.958156 8.488567 3.345642 -4.670066 -12.870927 0.000000 -0.000000 0.000000 -0.902421 0.813597 6.506823 1.444776 -2.756230 2.514955 1.277245 -2.016984 4.910939 3.526122 0.620234 -9.000304 3.529055 -5.808942 -3.651233 -27.896269 4.205431 -0.554945 -59.002239 -4.371313 7.113412 8.374392 -18.310503 5.316739 -2.843526 -1.128422 -5.905222 26.572402 -1.901016 -2.944583 59.297885 1.360602 11.744863 -13.161549 23.078999 -2.444862 5.743665 -0.743770 -6.618695 
1.760722 0.734531 0.999708 -89.559278 3.860207 84.756435 3.325480 0.813148 8.917733 -2.238856 -14.954472 1.520063 3.160818 8.109337 -16.996562 0.000000 -0.000000 0.000000 2.618042 -2.125166 5.630284 3.279378 2.948654 8.434092 3.410905 -4.707016 -12.762188 0.000000 -0.000000 0.000000 -0.887060 0.805271 6.498767 1.438180 -2.729793 2.496764 1.177963 -2.075008 4.983260 3.723157 0.696457 -9.232576 3.492834 -5.921976 -3.531120 -27.995371 4.474744 -0.525019 -58.810380 -4.238156 7.013301 8.385985 -17.586672 5.137992 -3.186558 -1.371684 -5.912253 26.603011 -2.025072 -2.874444 59.304235 1.327250 11.801835 -13.151874 22.492597 -2.514867 5.732461 -0.797563 -6.598254 
1.760604 0.734844 0.999616 -89.494770 3.801479 84.769236 3.257297 0.863937 8.984020 -2.157456 -15.073494 1.370308 3.055279 8.091606 -16.920519 0.000000 -0.000000 0.000000 2.688335 -1.886073 5.727325 3.141226 2.710629 8.167159 3.336032 -4.847980 -12.807990 0.000000 -0.000000 0.000000 -1.006786 0.833624 6.478282 1.437511 -2.665700 2.491161 1.178040 -2.108339 5.064594 3.967145 0.750994 -9.457166 3.517897 -6.080960 -3.495326 -28.044986 4.770347 -0.645466 -58.660176 -4.051664 6.974241 8.324133 -16.808185 5.252671 -3.308838 -1.614588 -5.419862 26.658151 -2.264528 -2.943441 59.275074 1.223633 11.770968 -13.092050 21.820807 -2.625261 5.580745 -0.889722 -6.514507 
1.760654 0.735190 0.999697 -89.443260 3.799651 84.704151 3.254297 0.974535 9.012267 -2.102590 -15.177658 1.491718 3.047649 8.003055 -16.946372 0.000000 -0.000000 0.000000 2.697411 -1.787443 5.832986 3.158457 2.562757 8.156683 3.365690 -4.907941 -12.805559 0.000000 -0.000000 0.000000 -1.033362 0.762709 6.567621 1.414485 -2.616156 2.534346 1.174844 -2.101890 5.148872 4.087943 0.922561 -9.704522 3.488566 -6.042705 -3.425505 -28.135442 4.971221 -0.652527 -58.514097 -3.830631 6.854703 8.356885 -16.613041 5.045263 -3.378976 -1.784953 -5.273345 26.759548 -2.327554 -2.962246 59.163255 1.139552 11.734189 -13.199086 21.424924 -2.733275 5.364450 -0.986751 -6.196247 
1.760647 0.735533 0.999614 -89.430865 3.795519 84.666906 3.250381 0.950985 9.072568 -2.081493 -15.222672 1.496071 3.006319 8.110090 -16.944891 0.000000 -0.000000 0.000000 2.759575 -1.537009 5.949084 3.145691 2.495355 8.047792 3.354777 -5.046811 -12.824670 0.000000 -0.000000 0.000000 -1.070381 0.737245 6.671615 1.405661 -2.538365 2.471201 1.210265 -2.073474 5.150647 4.111100 0.940782 -9.706271 3.594294 -5.951149 -3.564042 -28.032429 5.149763 -0.508421 -58.584380 -3.594052 6.826206 8.330884 -16.469522 5.156616 -3.434808 -1.603329 -5.585848 26.721909 -2.368449 -2.957663 59.118545 1.054405 11.654630 -13.061358 21.097901 -2.749409 5.454287 -0.765952 -6.366692 
1.760535 0.735848 0.999561 -89.466123 3.792788 84.657641 3.266631 1.002697 9.089431 -2.055467 -15.211300 1.501530 3.005030 8.091481 -16.917320 0.000000 -0.000000 0.000000 2.731322 -1.706046 5.917327 3.190172 2.604398 8.126382 3.295863 -4.996044 -12.825988 0.000000 -0.000000 0.000000 -1.077083 0.803737 6.637952 1.391354 -2.474015 2.562089 1.206903 -2.028028 5.171005 4.170998 0.949657 -9.923320 3.702873 -5.929893 -3.677034 -28.020636 5.253813 -0.468764 -58.563505 -3.541074 6.823244 8.263889 -16.715710 5.179808 -3.361949 -1.416759 -5.651864 26.740102 -2.397162 -2.996959 59.119793 0.992739 11.502449 -13.113284 20.835816 -2.895504 5.385582 -0.936873 -6.302340 
1.760377 0.736110 0.999524 -89.271071 3.821766 84.668369 3.337582 1.123720 9.071707 -2.039394 -15.395197 1.500863 2.913725 7.980019 -16.980808 0.000000 -0.000000 0.000000 2.756526 -1.899903 5.951645 3.182386 2.582733 8.079576 3.314839 -4.932297 -12.882241 0.000000 -0.000000 0.000000 -1.021570 0.787473 6.646717 1.359583 -2.491027 2.597843 1.183666 -1.996101 5.120277 4.200390 1.012703 -9.963526 3.842674 -5.845852 -3.754451 -27.994376 5.295352 -0.485454 -58.533982 -3.538091 6.823296 8.167786 -17.051654 5.232725 -3.258858 -1.351375 -5.583951 26.740225 -2.503997 -3.207269 59.117806 0.879804 11.362610 -13.044876 20.644015 -2.856102 5.383784 -0.908792 -6.185957 
